<?xml version="1.0" standalone="no"?>
<!DOCTYPE svg PUBLIC "-//W3C//DTD SVG 20010904//EN"
 "http://www.w3.org/TR/2001/REC-SVG-20010904/DTD/svg10.dtd">
<svg version="1.0" xmlns="http://www.w3.org/2000/svg"
 width="1280.000000pt" height="714.000000pt" viewBox="0 0 1280.000000 714.000000"
 preserveAspectRatio="xMidYMid meet">
<metadata>
Created by potrace 1.15, written by Peter Selinger 2001-2017
</metadata>
<g transform="translate(0.000000,714.000000) scale(0.100000,-0.100000)"
fill="#000000" stroke="none">
<path d="M10705 7130 c-318 -50 -608 -269 -726 -550 -56 -132 -73 -229 -73
-400 1 -125 5 -170 22 -233 37 -136 101 -253 214 -394 15 -18 -70 21 -196 90
-73 40 -113 57 -121 51 -7 -5 -51 -42 -98 -81 -88 -76 -97 -81 -97 -60 0 31
-61 136 -95 164 -93 77 -233 64 -333 -31 -44 -41 -65 -81 -71 -136 l-6 -45
-820 2 -820 2 -84 81 c-45 44 -128 110 -183 147 -55 36 -102 73 -105 82 -24
77 -67 143 -167 251 -28 31 -71 84 -95 119 -187 264 -614 508 -1071 612 -52
12 -143 42 -203 65 -195 79 -430 124 -639 124 -86 0 -100 3 -183 39 -92 40
-204 72 -309 91 -128 22 -408 7 -531 -28 -19 -6 -69 -4 -135 5 -207 28 -503
-1 -709 -71 -69 -23 -81 -24 -235 -19 -304 11 -558 -43 -816 -172 -85 -43
-232 -141 -294 -196 l-49 -43 -86 -1 c-187 -3 -376 -118 -642 -391 -202 -207
-347 -345 -412 -393 -155 -112 -280 -291 -358 -511 -12 -36 -42 -99 -67 -142
-110 -192 -133 -375 -61 -479 19 -27 19 -28 -12 -93 -92 -196 -16 -467 202
-726 45 -53 58 -76 68 -125 63 -294 312 -536 696 -680 90 -33 315 -94 405
-109 30 -5 38 -12 54 -52 10 -25 42 -71 71 -102 57 -62 58 -64 73 -238 6 -72
14 -100 36 -138 40 -68 121 -143 222 -206 49 -30 125 -82 169 -116 108 -83
175 -124 302 -188 132 -66 225 -100 363 -132 93 -22 136 -26 365 -31 281 -6
371 0 605 43 74 14 145 27 158 31 18 4 25 -1 38 -33 58 -140 194 -319 320
-425 88 -74 105 -98 301 -439 60 -105 238 -452 322 -630 75 -156 211 -273 336
-287 68 -8 169 14 197 44 20 22 23 34 21 96 -2 76 -9 101 -107 382 -31 88 -52
161 -47 163 6 2 61 -9 123 -24 90 -21 152 -28 303 -35 105 -4 231 -11 281 -15
108 -8 197 3 409 52 324 74 495 153 657 302 101 94 188 235 188 305 0 13 13
36 30 52 38 36 58 80 76 166 10 49 12 81 5 107 -25 101 -28 92 34 92 173 0
365 43 495 111 353 183 560 644 560 1244 0 178 -18 485 -36 630 -35 279 -106
495 -206 626 -19 24 -49 87 -67 139 -75 216 -198 397 -318 467 -26 15 -43 32
-43 43 0 16 14 19 143 24 78 3 400 7 715 9 l572 3 0 -30 c0 -46 42 -127 85
-165 54 -47 100 -64 176 -65 54 0 74 5 112 27 62 36 99 84 117 151 l15 55 95
-79 c52 -44 100 -80 107 -80 6 0 77 34 156 75 80 41 148 75 151 75 3 0 -19
-33 -50 -72 -209 -271 -249 -667 -99 -983 116 -244 349 -438 615 -511 94 -26
368 -26 460 -1 264 75 465 221 587 429 104 175 137 294 137 495 l0 142 26 -7
c14 -3 86 -6 160 -6 163 1 246 21 383 91 77 39 109 64 192 147 153 154 216
288 237 500 33 330 -110 617 -390 781 -40 23 -116 58 -170 76 -90 30 -107 33
-232 33 -74 1 -151 -2 -171 -7 l-36 -7 -6 162 c-6 193 -25 278 -93 408 -124
241 -356 429 -604 490 -98 24 -292 34 -385 20z m260 -365 c154 -32 317 -151
392 -285 70 -124 94 -277 62 -405 -23 -96 -92 -227 -155 -295 l-23 -25 132
-116 c73 -63 149 -128 170 -143 l37 -28 64 69 c35 38 87 81 116 97 179 97 381
67 528 -80 70 -70 107 -139 124 -234 38 -201 -104 -417 -320 -489 -160 -54
-330 0 -465 149 l-52 58 -135 -120 c-74 -65 -148 -131 -163 -147 l-29 -28 52
-67 c99 -132 133 -225 134 -366 0 -199 -95 -379 -258 -488 -96 -64 -178 -92
-291 -99 -165 -10 -309 44 -435 163 -125 118 -183 247 -184 409 0 50 6 115 13
145 53 218 222 383 445 436 l76 18 -2 67 c-2 37 0 70 4 74 10 11 41 -11 63
-45 27 -41 107 -80 164 -80 156 1 276 174 257 372 -12 136 -75 240 -170 284
-94 44 -170 26 -248 -57 -26 -28 -53 -49 -60 -46 -9 2 -13 25 -13 65 0 33 -4
65 -10 70 -5 5 -41 17 -79 27 -198 52 -353 194 -417 382 -34 97 -34 269 -1
365 99 285 389 453 677 393z m-6505 -949 c185 -34 347 -161 420 -330 28 -67
25 -77 -13 -34 -45 53 -115 81 -199 80 -135 -1 -223 -54 -280 -169 -79 -160
-15 -334 151 -411 81 -39 186 -38 255 1 27 15 51 26 53 23 6 -6 -71 -98 -126
-149 -67 -63 -83 -97 -82 -166 0 -31 25 -351 56 -711 30 -360 55 -681 55 -712
0 -50 -4 -62 -29 -90 l-29 -33 -326 -3 c-362 -3 -372 -2 -402 62 -15 31 -12
79 46 742 34 390 62 732 62 761 1 63 -24 110 -88 166 -140 123 -211 339 -175
529 39 201 201 375 402 432 99 28 147 30 249 12z"/>
</g>
</svg>
