<?xml version="1.0" standalone="no"?>
<!DOCTYPE svg PUBLIC "-//W3C//DTD SVG 20010904//EN"
 "http://www.w3.org/TR/2001/REC-SVG-20010904/DTD/svg10.dtd">
<svg version="1.0" xmlns="http://www.w3.org/2000/svg"
 width="76.000000pt" height="76.000000pt" viewBox="0 0 76.000000 76.000000"
 preserveAspectRatio="xMidYMid meet">
<metadata>
Created by potrace 1.13, written by Peter Selinger 2001-2015
</metadata>
<g transform="translate(0.000000,76.000000) scale(0.100000,-0.100000)"
fill="#000000" stroke="none">
<path d="M370 634 c-10 -11 -15 -74 -18 -226 l-5 -211 -63 6 c-81 8 -102 19
-109 60 -7 38 23 143 66 227 36 71 36 82 2 120 -28 30 -28 30 -73 16 -62 -18
-61 -42 2 -38 66 5 69 -11 20 -111 -80 -161 -85 -182 -56 -243 23 -49 38 -57
122 -69 l77 -10 0 -35 0 -35 -87 -3 c-49 -1 -88 -7 -88 -12 0 -5 11 -17 25
-26 23 -15 48 -16 218 -10 106 4 196 12 202 17 22 22 -17 34 -113 34 l-97 0 0
39 0 40 70 13 c92 17 124 47 132 124 6 57 -7 111 -48 206 l-23 53 22 23 c21
22 21 25 6 38 -14 12 -19 10 -39 -14 -30 -34 -27 -75 10 -154 32 -67 44 -178
23 -203 -15 -18 -82 -40 -122 -40 l-26 0 0 220 c0 121 -4 220 -9 220 -5 0 -14
-7 -21 -16z"/>
</g>
</svg>
